<?xml version="1.0" encoding="UTF-8" ?>
<svg version="1.1" width="640" height="90" xmlns="http://www.w3.org/2000/svg" shape-rendering="crispEdges">
<rect x="74" y="64" width="4" height="1" fill="#5B3138" />
<rect x="74" y="65" width="1" height="4" fill="#BA756A" />
<rect x="75" y="65" width="3" height="1" fill="#5B3138" />
<rect x="75" y="66" width="1" height="3" fill="#BA756A" />
<rect x="76" y="66" width="2" height="3" fill="#5B3138" />
<rect x="73" y="67" width="1" height="1" fill="#BA756A" />
<rect x="68" y="68" width="1" height="1" fill="#6D758D" />
<rect x="68" y="69" width="1" height="1" fill="#060608" />
<rect x="69" y="69" width="1" height="1" fill="#F4D29C" />
<rect x="75" y="69" width="2" height="1" fill="#5B3138" />
<rect x="77" y="69" width="1" height="3" fill="#285CC4" />
<rect x="69" y="70" width="1" height="1" fill="#060608" />
<rect x="70" y="70" width="1" height="1" fill="#F4D29C" />
<rect x="74" y="70" width="2" height="1" fill="#5B3138" />
<rect x="76" y="70" width="1" height="1" fill="#285CC4" />
<rect x="70" y="71" width="1" height="1" fill="#060608" />
<rect x="71" y="71" width="1" height="1" fill="#73172D" />
<rect x="72" y="71" width="4" height="1" fill="#285CC4" />
<rect x="76" y="71" width="1" height="1" fill="#403353" />
<rect x="71" y="72" width="1" height="1" fill="#060608" />
<rect x="72" y="72" width="1" height="1" fill="#403353" />
<rect x="73" y="72" width="2" height="1" fill="#285CC4" />
<rect x="75" y="72" width="1" height="1" fill="#403353" />
<rect x="76" y="72" width="1" height="5" fill="#285CC4" />
<rect x="73" y="73" width="2" height="1" fill="#403353" />
<rect x="75" y="73" width="1" height="4" fill="#285CC4" />
<rect x="73" y="74" width="2" height="3" fill="#285CC4" />
<rect x="74" y="77" width="3" height="5" fill="#141013" />
<rect x="73" y="82" width="4" height="2" fill="#060608" />
</svg>