<?xml version="1.0" encoding="UTF-8" ?>
<svg version="1.1" width="640" height="90" xmlns="http://www.w3.org/2000/svg" shape-rendering="crispEdges">
<rect x="59" y="64" width="4" height="2" fill="#285CC4" />
<rect x="57" y="65" width="2" height="1" fill="#285CC4" />
<rect x="59" y="66" width="2" height="3" fill="#73172D" />
<rect x="61" y="66" width="2" height="1" fill="#3B1725" />
<rect x="58" y="67" width="1" height="1" fill="#73172D" />
<rect x="61" y="67" width="1" height="2" fill="#73172D" />
<rect x="62" y="67" width="1" height="1" fill="#3B1725" />
<rect x="53" y="68" width="1" height="1" fill="#6D758D" />
<rect x="62" y="68" width="1" height="1" fill="#73172D" />
<rect x="53" y="69" width="1" height="1" fill="#060608" />
<rect x="54" y="69" width="1" height="1" fill="#F4D29C" />
<rect x="60" y="69" width="3" height="2" fill="#285CC4" />
<rect x="54" y="70" width="1" height="1" fill="#060608" />
<rect x="55" y="70" width="1" height="1" fill="#F4D29C" />
<rect x="59" y="70" width="1" height="3" fill="#285CC4" />
<rect x="55" y="71" width="1" height="1" fill="#060608" />
<rect x="56" y="71" width="1" height="1" fill="#73172D" />
<rect x="57" y="71" width="2" height="1" fill="#285CC4" />
<rect x="60" y="71" width="1" height="1" fill="#285CC4" />
<rect x="61" y="71" width="1" height="1" fill="#403353" />
<rect x="62" y="71" width="1" height="1" fill="#285CC4" />
<rect x="56" y="72" width="1" height="1" fill="#060608" />
<rect x="57" y="72" width="1" height="1" fill="#403353" />
<rect x="58" y="72" width="1" height="1" fill="#285CC4" />
<rect x="60" y="72" width="1" height="1" fill="#403353" />
<rect x="61" y="72" width="1" height="5" fill="#285CC4" />
<rect x="58" y="73" width="2" height="1" fill="#403353" />
<rect x="60" y="73" width="1" height="4" fill="#285CC4" />
<rect x="58" y="74" width="2" height="3" fill="#285CC4" />
<rect x="59" y="77" width="3" height="5" fill="#141013" />
<rect x="58" y="82" width="4" height="2" fill="#060608" />
</svg>