<?xml version="1.0" encoding="UTF-8" ?>
<svg version="1.1" width="640" height="90" xmlns="http://www.w3.org/2000/svg" shape-rendering="crispEdges">
<rect x="46" y="17" width="4" height="1" fill="#242234" />
<rect x="45" y="18" width="1" height="1" fill="#242234" />
<rect x="46" y="18" width="4" height="11" fill="#403353" />
<rect x="50" y="18" width="1" height="1" fill="#242234" />
<rect x="37" y="19" width="4" height="1" fill="#242234" />
<rect x="44" y="19" width="1" height="1" fill="#242234" />
<rect x="45" y="19" width="1" height="10" fill="#403353" />
<rect x="50" y="19" width="1" height="10" fill="#403353" />
<rect x="51" y="19" width="1" height="1" fill="#242234" />
<rect x="36" y="20" width="1" height="1" fill="#242234" />
<rect x="37" y="20" width="4" height="9" fill="#403353" />
<rect x="41" y="20" width="1" height="1" fill="#242234" />
<rect x="43" y="20" width="1" height="1" fill="#242234" />
<rect x="44" y="20" width="1" height="9" fill="#403353" />
<rect x="51" y="20" width="1" height="9" fill="#403353" />
<rect x="52" y="20" width="1" height="1" fill="#242234" />
<rect x="54" y="20" width="4" height="1" fill="#242234" />
<rect x="35" y="21" width="1" height="1" fill="#242234" />
<rect x="36" y="21" width="1" height="8" fill="#403353" />
<rect x="41" y="21" width="1" height="8" fill="#403353" />
<rect x="42" y="21" width="1" height="1" fill="#242234" />
<rect x="43" y="21" width="1" height="8" fill="#403353" />
<rect x="52" y="21" width="1" height="8" fill="#403353" />
<rect x="53" y="21" width="1" height="1" fill="#242234" />
<rect x="54" y="21" width="4" height="8" fill="#403353" />
<rect x="58" y="21" width="1" height="1" fill="#242234" />
<rect x="29" y="22" width="4" height="1" fill="#242234" />
<rect x="34" y="22" width="1" height="1" fill="#242234" />
<rect x="35" y="22" width="1" height="7" fill="#403353" />
<rect x="42" y="22" width="1" height="7" fill="#403353" />
<rect x="53" y="22" width="1" height="7" fill="#403353" />
<rect x="58" y="22" width="1" height="7" fill="#403353" />
<rect x="59" y="22" width="1" height="1" fill="#242234" />
<rect x="28" y="23" width="1" height="1" fill="#242234" />
<rect x="29" y="23" width="4" height="6" fill="#403353" />
<rect x="33" y="23" width="1" height="1" fill="#242234" />
<rect x="34" y="23" width="1" height="6" fill="#403353" />
<rect x="59" y="23" width="1" height="6" fill="#403353" />
<rect x="60" y="23" width="2" height="1" fill="#242234" />
<rect x="27" y="24" width="1" height="1" fill="#242234" />
<rect x="28" y="24" width="1" height="5" fill="#403353" />
<rect x="33" y="24" width="1" height="5" fill="#403353" />
<rect x="60" y="24" width="2" height="5" fill="#403353" />
<rect x="62" y="24" width="1" height="1" fill="#242234" />
<rect x="26" y="25" width="1" height="1" fill="#242234" />
<rect x="27" y="25" width="1" height="4" fill="#403353" />
<rect x="62" y="25" width="1" height="4" fill="#403353" />
<rect x="63" y="25" width="1" height="1" fill="#242234" />
<rect x="25" y="26" width="1" height="1" fill="#242234" />
<rect x="26" y="26" width="1" height="3" fill="#403353" />
<rect x="63" y="26" width="1" height="3" fill="#403353" />
<rect x="64" y="26" width="1" height="1" fill="#242234" />
<rect x="24" y="27" width="1" height="2" fill="#242234" />
<rect x="25" y="27" width="1" height="2" fill="#403353" />
<rect x="64" y="27" width="1" height="2" fill="#403353" />
<rect x="65" y="27" width="1" height="1" fill="#242234" />
<rect x="65" y="28" width="1" height="1" fill="#403353" />
<rect x="66" y="28" width="1" height="1" fill="#242234" />
<rect x="24" y="29" width="43" height="2" fill="#793A80" />
<rect x="24" y="31" width="43" height="1" fill="#F5A097" />
</svg>