<?xml version="1.0" encoding="UTF-8" ?>
<svg version="1.1" width="640" height="90" xmlns="http://www.w3.org/2000/svg" shape-rendering="crispEdges">
<rect x="29" y="63" width="1" height="6" fill="#322B28" />
<rect x="28" y="64" width="1" height="4" fill="#322B28" />
<rect x="30" y="64" width="1" height="4" fill="#322B28" />
<rect x="27" y="65" width="1" height="2" fill="#322B28" />
<rect x="31" y="65" width="1" height="2" fill="#322B28" />
<rect x="29" y="69" width="1" height="11" fill="#221C1A" />
<rect x="28" y="75" width="1" height="5" fill="#221C1A" />
<rect x="30" y="75" width="1" height="5" fill="#221C1A" />
<rect x="0" y="80" width="27" height="1" fill="#221C1A" />
<rect x="27" y="80" width="5" height="4" fill="#322B28" />
<rect x="32" y="80" width="62" height="1" fill="#221C1A" />
<rect x="1" y="81" width="1" height="4" fill="#322B28" />
<rect x="3" y="81" width="1" height="4" fill="#322B28" />
<rect x="5" y="81" width="1" height="4" fill="#322B28" />
<rect x="7" y="81" width="1" height="3" fill="#221C1A" />
<rect x="9" y="81" width="1" height="4" fill="#322B28" />
<rect x="11" y="81" width="1" height="4" fill="#322B28" />
<rect x="13" y="81" width="1" height="4" fill="#322B28" />
<rect x="15" y="81" width="1" height="3" fill="#221C1A" />
<rect x="17" y="81" width="1" height="4" fill="#322B28" />
<rect x="19" y="81" width="1" height="4" fill="#322B28" />
<rect x="21" y="81" width="1" height="4" fill="#322B28" />
<rect x="23" y="81" width="1" height="3" fill="#221C1A" />
<rect x="25" y="81" width="1" height="4" fill="#322B28" />
<rect x="33" y="81" width="1" height="4" fill="#322B28" />
<rect x="35" y="81" width="1" height="4" fill="#322B28" />
<rect x="37" y="81" width="1" height="4" fill="#322B28" />
<rect x="39" y="81" width="1" height="3" fill="#221C1A" />
<rect x="41" y="81" width="1" height="4" fill="#322B28" />
<rect x="43" y="81" width="1" height="4" fill="#322B28" />
<rect x="45" y="81" width="1" height="4" fill="#322B28" />
<rect x="47" y="81" width="1" height="4" fill="#322B28" />
<rect x="49" y="81" width="1" height="4" fill="#322B28" />
<rect x="51" y="81" width="1" height="4" fill="#322B28" />
<rect x="53" y="81" width="1" height="3" fill="#221C1A" />
<rect x="55" y="81" width="1" height="4" fill="#322B28" />
<rect x="57" y="81" width="1" height="4" fill="#322B28" />
<rect x="59" y="81" width="1" height="4" fill="#322B28" />
<rect x="61" y="81" width="1" height="3" fill="#221C1A" />
<rect x="63" y="81" width="1" height="4" fill="#322B28" />
<rect x="65" y="81" width="1" height="4" fill="#322B28" />
<rect x="67" y="81" width="1" height="4" fill="#322B28" />
<rect x="69" y="81" width="1" height="3" fill="#221C1A" />
<rect x="71" y="81" width="1" height="4" fill="#322B28" />
<rect x="73" y="81" width="1" height="4" fill="#322B28" />
<rect x="75" y="81" width="1" height="4" fill="#322B28" />
<rect x="77" y="81" width="1" height="3" fill="#221C1A" />
<rect x="79" y="81" width="1" height="4" fill="#322B28" />
<rect x="81" y="81" width="1" height="4" fill="#322B28" />
<rect x="83" y="81" width="1" height="4" fill="#322B28" />
<rect x="85" y="81" width="1" height="3" fill="#221C1A" />
<rect x="87" y="81" width="1" height="4" fill="#322B28" />
<rect x="89" y="81" width="1" height="4" fill="#322B28" />
<rect x="91" y="81" width="1" height="4" fill="#322B28" />
<rect x="93" y="81" width="1" height="3" fill="#221C1A" />
<rect x="0" y="84" width="1" height="1" fill="#71413B" />
<rect x="2" y="84" width="1" height="1" fill="#71413B" />
<rect x="4" y="84" width="1" height="1" fill="#71413B" />
<rect x="6" y="84" width="1" height="1" fill="#71413B" />
<rect x="7" y="84" width="1" height="1" fill="#322B28" />
<rect x="8" y="84" width="1" height="1" fill="#71413B" />
<rect x="10" y="84" width="1" height="1" fill="#71413B" />
<rect x="12" y="84" width="1" height="1" fill="#71413B" />
<rect x="14" y="84" width="1" height="1" fill="#71413B" />
<rect x="15" y="84" width="1" height="1" fill="#322B28" />
<rect x="16" y="84" width="1" height="1" fill="#71413B" />
<rect x="18" y="84" width="1" height="1" fill="#71413B" />
<rect x="20" y="84" width="1" height="1" fill="#71413B" />
<rect x="22" y="84" width="1" height="1" fill="#71413B" />
<rect x="23" y="84" width="1" height="1" fill="#322B28" />
<rect x="24" y="84" width="1" height="1" fill="#71413B" />
<rect x="26" y="84" width="1" height="1" fill="#71413B" />
<rect x="27" y="84" width="1" height="1" fill="#322B28" />
<rect x="28" y="84" width="1" height="1" fill="#71413B" />
<rect x="29" y="84" width="1" height="1" fill="#322B28" />
<rect x="30" y="84" width="1" height="1" fill="#71413B" />
<rect x="31" y="84" width="1" height="1" fill="#322B28" />
<rect x="32" y="84" width="1" height="1" fill="#71413B" />
<rect x="34" y="84" width="1" height="1" fill="#71413B" />
<rect x="36" y="84" width="1" height="1" fill="#71413B" />
<rect x="38" y="84" width="1" height="1" fill="#71413B" />
<rect x="39" y="84" width="1" height="1" fill="#322B28" />
<rect x="40" y="84" width="1" height="1" fill="#71413B" />
<rect x="42" y="84" width="1" height="1" fill="#71413B" />
<rect x="44" y="84" width="1" height="1" fill="#71413B" />
<rect x="46" y="84" width="1" height="1" fill="#71413B" />
<rect x="48" y="84" width="1" height="1" fill="#71413B" />
<rect x="50" y="84" width="1" height="1" fill="#71413B" />
<rect x="52" y="84" width="1" height="1" fill="#71413B" />
<rect x="53" y="84" width="1" height="1" fill="#322B28" />
<rect x="54" y="84" width="1" height="1" fill="#71413B" />
<rect x="56" y="84" width="1" height="1" fill="#71413B" />
<rect x="58" y="84" width="1" height="1" fill="#71413B" />
<rect x="60" y="84" width="1" height="1" fill="#71413B" />
<rect x="61" y="84" width="1" height="1" fill="#322B28" />
<rect x="62" y="84" width="1" height="1" fill="#71413B" />
<rect x="64" y="84" width="1" height="1" fill="#71413B" />
<rect x="66" y="84" width="1" height="1" fill="#71413B" />
<rect x="68" y="84" width="1" height="1" fill="#71413B" />
<rect x="69" y="84" width="1" height="1" fill="#322B28" />
<rect x="70" y="84" width="1" height="1" fill="#71413B" />
<rect x="72" y="84" width="1" height="1" fill="#71413B" />
<rect x="74" y="84" width="1" height="1" fill="#71413B" />
<rect x="76" y="84" width="1" height="1" fill="#71413B" />
<rect x="77" y="84" width="1" height="1" fill="#322B28" />
<rect x="78" y="84" width="1" height="1" fill="#71413B" />
<rect x="80" y="84" width="1" height="1" fill="#71413B" />
<rect x="82" y="84" width="1" height="1" fill="#71413B" />
<rect x="84" y="84" width="1" height="1" fill="#71413B" />
<rect x="85" y="84" width="1" height="1" fill="#322B28" />
<rect x="86" y="84" width="1" height="1" fill="#71413B" />
<rect x="88" y="84" width="1" height="1" fill="#71413B" />
<rect x="90" y="84" width="1" height="1" fill="#71413B" />
<rect x="92" y="84" width="1" height="1" fill="#71413B" />
<rect x="93" y="84" width="1" height="1" fill="#322B28" />
<rect x="0" y="85" width="1" height="3" fill="#322B28" />
<rect x="1" y="85" width="1" height="1" fill="#71413B" />
<rect x="2" y="85" width="1" height="3" fill="#322B28" />
<rect x="3" y="85" width="1" height="1" fill="#71413B" />
<rect x="4" y="85" width="1" height="3" fill="#322B28" />
<rect x="5" y="85" width="1" height="1" fill="#71413B" />
<rect x="6" y="85" width="1" height="3" fill="#322B28" />
<rect x="7" y="85" width="1" height="1" fill="#71413B" />
<rect x="8" y="85" width="1" height="3" fill="#322B28" />
<rect x="9" y="85" width="1" height="1" fill="#71413B" />
<rect x="10" y="85" width="1" height="3" fill="#322B28" />
<rect x="11" y="85" width="1" height="1" fill="#71413B" />
<rect x="12" y="85" width="1" height="3" fill="#322B28" />
<rect x="13" y="85" width="1" height="1" fill="#71413B" />
<rect x="14" y="85" width="1" height="3" fill="#322B28" />
<rect x="15" y="85" width="1" height="1" fill="#71413B" />
<rect x="16" y="85" width="1" height="3" fill="#322B28" />
<rect x="17" y="85" width="1" height="1" fill="#71413B" />
<rect x="18" y="85" width="1" height="3" fill="#322B28" />
<rect x="19" y="85" width="1" height="1" fill="#71413B" />
<rect x="20" y="85" width="1" height="3" fill="#322B28" />
<rect x="21" y="85" width="1" height="1" fill="#71413B" />
<rect x="22" y="85" width="1" height="3" fill="#322B28" />
<rect x="23" y="85" width="1" height="1" fill="#71413B" />
<rect x="24" y="85" width="1" height="3" fill="#322B28" />
<rect x="25" y="85" width="1" height="1" fill="#71413B" />
<rect x="26" y="85" width="1" height="3" fill="#322B28" />
<rect x="27" y="85" width="1" height="1" fill="#71413B" />
<rect x="28" y="85" width="1" height="3" fill="#322B28" />
<rect x="29" y="85" width="1" height="1" fill="#71413B" />
<rect x="30" y="85" width="1" height="3" fill="#322B28" />
<rect x="31" y="85" width="1" height="1" fill="#71413B" />
<rect x="32" y="85" width="1" height="3" fill="#322B28" />
<rect x="33" y="85" width="1" height="1" fill="#71413B" />
<rect x="34" y="85" width="1" height="3" fill="#322B28" />
<rect x="35" y="85" width="1" height="1" fill="#71413B" />
<rect x="36" y="85" width="1" height="3" fill="#322B28" />
<rect x="37" y="85" width="1" height="1" fill="#71413B" />
<rect x="38" y="85" width="1" height="3" fill="#322B28" />
<rect x="39" y="85" width="1" height="1" fill="#71413B" />
<rect x="40" y="85" width="1" height="3" fill="#322B28" />
<rect x="41" y="85" width="1" height="1" fill="#71413B" />
<rect x="42" y="85" width="1" height="3" fill="#322B28" />
<rect x="43" y="85" width="1" height="1" fill="#71413B" />
<rect x="44" y="85" width="1" height="3" fill="#322B28" />
<rect x="45" y="85" width="1" height="1" fill="#71413B" />
<rect x="46" y="85" width="1" height="3" fill="#322B28" />
<rect x="47" y="85" width="1" height="1" fill="#71413B" />
<rect x="48" y="85" width="1" height="3" fill="#322B28" />
<rect x="49" y="85" width="1" height="1" fill="#71413B" />
<rect x="50" y="85" width="1" height="3" fill="#322B28" />
<rect x="51" y="85" width="1" height="1" fill="#71413B" />
<rect x="52" y="85" width="1" height="3" fill="#322B28" />
<rect x="53" y="85" width="1" height="1" fill="#71413B" />
<rect x="54" y="85" width="1" height="3" fill="#322B28" />
<rect x="55" y="85" width="1" height="1" fill="#71413B" />
<rect x="56" y="85" width="1" height="3" fill="#322B28" />
<rect x="57" y="85" width="1" height="1" fill="#71413B" />
<rect x="58" y="85" width="1" height="3" fill="#322B28" />
<rect x="59" y="85" width="1" height="1" fill="#71413B" />
<rect x="60" y="85" width="1" height="3" fill="#322B28" />
<rect x="61" y="85" width="1" height="1" fill="#71413B" />
<rect x="62" y="85" width="1" height="3" fill="#322B28" />
<rect x="63" y="85" width="1" height="1" fill="#71413B" />
<rect x="64" y="85" width="1" height="3" fill="#322B28" />
<rect x="65" y="85" width="1" height="1" fill="#71413B" />
<rect x="66" y="85" width="1" height="3" fill="#322B28" />
<rect x="67" y="85" width="1" height="1" fill="#71413B" />
<rect x="68" y="85" width="1" height="3" fill="#322B28" />
<rect x="69" y="85" width="1" height="1" fill="#71413B" />
<rect x="70" y="85" width="1" height="3" fill="#322B28" />
<rect x="71" y="85" width="1" height="1" fill="#71413B" />
<rect x="72" y="85" width="1" height="3" fill="#322B28" />
<rect x="73" y="85" width="1" height="1" fill="#71413B" />
<rect x="74" y="85" width="1" height="3" fill="#322B28" />
<rect x="75" y="85" width="1" height="1" fill="#71413B" />
<rect x="76" y="85" width="1" height="3" fill="#322B28" />
<rect x="77" y="85" width="1" height="1" fill="#71413B" />
<rect x="78" y="85" width="1" height="3" fill="#322B28" />
<rect x="79" y="85" width="1" height="1" fill="#71413B" />
<rect x="80" y="85" width="1" height="3" fill="#322B28" />
<rect x="81" y="85" width="1" height="1" fill="#71413B" />
<rect x="82" y="85" width="1" height="3" fill="#322B28" />
<rect x="83" y="85" width="1" height="1" fill="#71413B" />
<rect x="84" y="85" width="1" height="3" fill="#322B28" />
<rect x="85" y="85" width="1" height="1" fill="#71413B" />
<rect x="86" y="85" width="1" height="3" fill="#322B28" />
<rect x="87" y="85" width="1" height="1" fill="#71413B" />
<rect x="88" y="85" width="1" height="3" fill="#322B28" />
<rect x="89" y="85" width="1" height="1" fill="#71413B" />
<rect x="90" y="85" width="1" height="3" fill="#322B28" />
<rect x="91" y="85" width="1" height="1" fill="#71413B" />
<rect x="92" y="85" width="1" height="3" fill="#322B28" />
<rect x="93" y="85" width="1" height="1" fill="#71413B" />
<rect x="1" y="86" width="1" height="3" fill="#322B28" />
<rect x="3" y="86" width="1" height="3" fill="#322B28" />
<rect x="5" y="86" width="1" height="3" fill="#322B28" />
<rect x="7" y="86" width="1" height="3" fill="#322B28" />
<rect x="9" y="86" width="1" height="3" fill="#322B28" />
<rect x="11" y="86" width="1" height="3" fill="#322B28" />
<rect x="13" y="86" width="1" height="3" fill="#322B28" />
<rect x="15" y="86" width="1" height="3" fill="#322B28" />
<rect x="17" y="86" width="1" height="3" fill="#322B28" />
<rect x="19" y="86" width="1" height="3" fill="#322B28" />
<rect x="21" y="86" width="1" height="3" fill="#322B28" />
<rect x="23" y="86" width="1" height="3" fill="#322B28" />
<rect x="25" y="86" width="1" height="3" fill="#322B28" />
<rect x="27" y="86" width="1" height="3" fill="#322B28" />
<rect x="29" y="86" width="1" height="3" fill="#322B28" />
<rect x="31" y="86" width="1" height="3" fill="#322B28" />
<rect x="33" y="86" width="1" height="3" fill="#322B28" />
<rect x="35" y="86" width="1" height="3" fill="#322B28" />
<rect x="37" y="86" width="1" height="3" fill="#322B28" />
<rect x="39" y="86" width="1" height="3" fill="#322B28" />
<rect x="41" y="86" width="1" height="3" fill="#322B28" />
<rect x="43" y="86" width="1" height="3" fill="#322B28" />
<rect x="45" y="86" width="1" height="3" fill="#322B28" />
<rect x="47" y="86" width="1" height="3" fill="#322B28" />
<rect x="49" y="86" width="1" height="3" fill="#322B28" />
<rect x="51" y="86" width="1" height="3" fill="#322B28" />
<rect x="53" y="86" width="1" height="3" fill="#322B28" />
<rect x="55" y="86" width="1" height="3" fill="#322B28" />
<rect x="57" y="86" width="1" height="3" fill="#322B28" />
<rect x="59" y="86" width="1" height="3" fill="#322B28" />
<rect x="61" y="86" width="1" height="3" fill="#322B28" />
<rect x="63" y="86" width="1" height="3" fill="#322B28" />
<rect x="65" y="86" width="1" height="3" fill="#322B28" />
<rect x="67" y="86" width="1" height="3" fill="#322B28" />
<rect x="69" y="86" width="1" height="3" fill="#322B28" />
<rect x="71" y="86" width="1" height="3" fill="#322B28" />
<rect x="73" y="86" width="1" height="3" fill="#322B28" />
<rect x="75" y="86" width="1" height="3" fill="#322B28" />
<rect x="77" y="86" width="1" height="3" fill="#322B28" />
<rect x="79" y="86" width="1" height="3" fill="#322B28" />
<rect x="81" y="86" width="1" height="3" fill="#322B28" />
<rect x="83" y="86" width="1" height="3" fill="#322B28" />
<rect x="85" y="86" width="1" height="3" fill="#322B28" />
<rect x="87" y="86" width="1" height="3" fill="#322B28" />
<rect x="89" y="86" width="1" height="3" fill="#322B28" />
<rect x="91" y="86" width="1" height="3" fill="#322B28" />
<rect x="93" y="86" width="1" height="3" fill="#322B28" />
<rect x="0" y="88" width="1" height="1" fill="#221C1A" />
<rect x="2" y="88" width="1" height="1" fill="#221C1A" />
<rect x="4" y="88" width="1" height="1" fill="#221C1A" />
<rect x="6" y="88" width="1" height="1" fill="#221C1A" />
<rect x="8" y="88" width="1" height="1" fill="#221C1A" />
<rect x="10" y="88" width="1" height="1" fill="#221C1A" />
<rect x="12" y="88" width="1" height="1" fill="#221C1A" />
<rect x="14" y="88" width="1" height="1" fill="#221C1A" />
<rect x="16" y="88" width="1" height="1" fill="#221C1A" />
<rect x="18" y="88" width="1" height="1" fill="#221C1A" />
<rect x="20" y="88" width="1" height="1" fill="#221C1A" />
<rect x="22" y="88" width="1" height="1" fill="#221C1A" />
<rect x="24" y="88" width="1" height="1" fill="#221C1A" />
<rect x="26" y="88" width="1" height="1" fill="#221C1A" />
<rect x="28" y="88" width="1" height="1" fill="#221C1A" />
<rect x="30" y="88" width="1" height="1" fill="#221C1A" />
<rect x="32" y="88" width="1" height="1" fill="#221C1A" />
<rect x="34" y="88" width="1" height="1" fill="#221C1A" />
<rect x="36" y="88" width="1" height="1" fill="#221C1A" />
<rect x="38" y="88" width="1" height="1" fill="#221C1A" />
<rect x="40" y="88" width="1" height="1" fill="#221C1A" />
<rect x="42" y="88" width="1" height="1" fill="#221C1A" />
<rect x="44" y="88" width="1" height="1" fill="#221C1A" />
<rect x="46" y="88" width="1" height="1" fill="#221C1A" />
<rect x="48" y="88" width="1" height="1" fill="#221C1A" />
<rect x="50" y="88" width="1" height="1" fill="#221C1A" />
<rect x="52" y="88" width="1" height="1" fill="#221C1A" />
<rect x="54" y="88" width="1" height="1" fill="#221C1A" />
<rect x="56" y="88" width="1" height="1" fill="#221C1A" />
<rect x="58" y="88" width="1" height="1" fill="#221C1A" />
<rect x="60" y="88" width="1" height="1" fill="#221C1A" />
<rect x="62" y="88" width="1" height="1" fill="#221C1A" />
<rect x="64" y="88" width="1" height="1" fill="#221C1A" />
<rect x="66" y="88" width="1" height="1" fill="#221C1A" />
<rect x="68" y="88" width="1" height="1" fill="#221C1A" />
<rect x="70" y="88" width="1" height="1" fill="#221C1A" />
<rect x="72" y="88" width="1" height="1" fill="#221C1A" />
<rect x="74" y="88" width="1" height="1" fill="#221C1A" />
<rect x="76" y="88" width="1" height="1" fill="#221C1A" />
<rect x="78" y="88" width="1" height="1" fill="#221C1A" />
<rect x="80" y="88" width="1" height="1" fill="#221C1A" />
<rect x="82" y="88" width="1" height="1" fill="#221C1A" />
<rect x="84" y="88" width="1" height="1" fill="#221C1A" />
<rect x="86" y="88" width="1" height="1" fill="#221C1A" />
<rect x="88" y="88" width="1" height="1" fill="#221C1A" />
<rect x="90" y="88" width="1" height="1" fill="#221C1A" />
<rect x="92" y="88" width="1" height="1" fill="#221C1A" />
<rect x="0" y="89" width="1" height="1" fill="#322B28" />
<rect x="1" y="89" width="1" height="1" fill="#221C1A" />
<rect x="2" y="89" width="1" height="1" fill="#322B28" />
<rect x="3" y="89" width="1" height="1" fill="#221C1A" />
<rect x="4" y="89" width="1" height="1" fill="#322B28" />
<rect x="5" y="89" width="1" height="1" fill="#221C1A" />
<rect x="6" y="89" width="1" height="1" fill="#322B28" />
<rect x="7" y="89" width="1" height="1" fill="#221C1A" />
<rect x="8" y="89" width="1" height="1" fill="#322B28" />
<rect x="9" y="89" width="1" height="1" fill="#221C1A" />
<rect x="10" y="89" width="1" height="1" fill="#322B28" />
<rect x="11" y="89" width="1" height="1" fill="#221C1A" />
<rect x="12" y="89" width="1" height="1" fill="#322B28" />
<rect x="13" y="89" width="1" height="1" fill="#221C1A" />
<rect x="14" y="89" width="1" height="1" fill="#322B28" />
<rect x="15" y="89" width="1" height="1" fill="#221C1A" />
<rect x="16" y="89" width="1" height="1" fill="#322B28" />
<rect x="17" y="89" width="1" height="1" fill="#221C1A" />
<rect x="18" y="89" width="1" height="1" fill="#322B28" />
<rect x="19" y="89" width="1" height="1" fill="#221C1A" />
<rect x="20" y="89" width="1" height="1" fill="#322B28" />
<rect x="21" y="89" width="1" height="1" fill="#221C1A" />
<rect x="22" y="89" width="1" height="1" fill="#322B28" />
<rect x="23" y="89" width="1" height="1" fill="#221C1A" />
<rect x="24" y="89" width="1" height="1" fill="#322B28" />
<rect x="25" y="89" width="1" height="1" fill="#221C1A" />
<rect x="26" y="89" width="1" height="1" fill="#322B28" />
<rect x="27" y="89" width="1" height="1" fill="#221C1A" />
<rect x="28" y="89" width="1" height="1" fill="#322B28" />
<rect x="29" y="89" width="1" height="1" fill="#221C1A" />
<rect x="30" y="89" width="1" height="1" fill="#322B28" />
<rect x="31" y="89" width="1" height="1" fill="#221C1A" />
<rect x="32" y="89" width="1" height="1" fill="#322B28" />
<rect x="33" y="89" width="1" height="1" fill="#221C1A" />
<rect x="34" y="89" width="1" height="1" fill="#322B28" />
<rect x="35" y="89" width="1" height="1" fill="#221C1A" />
<rect x="36" y="89" width="1" height="1" fill="#322B28" />
<rect x="37" y="89" width="1" height="1" fill="#221C1A" />
<rect x="38" y="89" width="1" height="1" fill="#322B28" />
<rect x="39" y="89" width="1" height="1" fill="#221C1A" />
<rect x="40" y="89" width="1" height="1" fill="#322B28" />
<rect x="41" y="89" width="1" height="1" fill="#221C1A" />
<rect x="42" y="89" width="1" height="1" fill="#322B28" />
<rect x="43" y="89" width="1" height="1" fill="#221C1A" />
<rect x="44" y="89" width="1" height="1" fill="#322B28" />
<rect x="45" y="89" width="1" height="1" fill="#221C1A" />
<rect x="46" y="89" width="1" height="1" fill="#322B28" />
<rect x="47" y="89" width="1" height="1" fill="#221C1A" />
<rect x="48" y="89" width="1" height="1" fill="#322B28" />
<rect x="49" y="89" width="1" height="1" fill="#221C1A" />
<rect x="50" y="89" width="1" height="1" fill="#322B28" />
<rect x="51" y="89" width="1" height="1" fill="#221C1A" />
<rect x="52" y="89" width="1" height="1" fill="#322B28" />
<rect x="53" y="89" width="1" height="1" fill="#221C1A" />
<rect x="54" y="89" width="1" height="1" fill="#322B28" />
<rect x="55" y="89" width="1" height="1" fill="#221C1A" />
<rect x="56" y="89" width="1" height="1" fill="#322B28" />
<rect x="57" y="89" width="1" height="1" fill="#221C1A" />
<rect x="58" y="89" width="1" height="1" fill="#322B28" />
<rect x="59" y="89" width="1" height="1" fill="#221C1A" />
<rect x="60" y="89" width="1" height="1" fill="#322B28" />
<rect x="61" y="89" width="1" height="1" fill="#221C1A" />
<rect x="62" y="89" width="1" height="1" fill="#322B28" />
<rect x="63" y="89" width="1" height="1" fill="#221C1A" />
<rect x="64" y="89" width="1" height="1" fill="#322B28" />
<rect x="65" y="89" width="1" height="1" fill="#221C1A" />
<rect x="66" y="89" width="1" height="1" fill="#322B28" />
<rect x="67" y="89" width="1" height="1" fill="#221C1A" />
<rect x="68" y="89" width="1" height="1" fill="#322B28" />
<rect x="69" y="89" width="1" height="1" fill="#221C1A" />
<rect x="70" y="89" width="1" height="1" fill="#322B28" />
<rect x="71" y="89" width="1" height="1" fill="#221C1A" />
<rect x="72" y="89" width="1" height="1" fill="#322B28" />
<rect x="73" y="89" width="1" height="1" fill="#221C1A" />
<rect x="74" y="89" width="1" height="1" fill="#322B28" />
<rect x="75" y="89" width="1" height="1" fill="#221C1A" />
<rect x="76" y="89" width="1" height="1" fill="#322B28" />
<rect x="77" y="89" width="1" height="1" fill="#221C1A" />
<rect x="78" y="89" width="1" height="1" fill="#322B28" />
<rect x="79" y="89" width="1" height="1" fill="#221C1A" />
<rect x="80" y="89" width="1" height="1" fill="#322B28" />
<rect x="81" y="89" width="1" height="1" fill="#221C1A" />
<rect x="82" y="89" width="1" height="1" fill="#322B28" />
<rect x="83" y="89" width="1" height="1" fill="#221C1A" />
<rect x="84" y="89" width="1" height="1" fill="#322B28" />
<rect x="85" y="89" width="1" height="1" fill="#221C1A" />
<rect x="86" y="89" width="1" height="1" fill="#322B28" />
<rect x="87" y="89" width="1" height="1" fill="#221C1A" />
<rect x="88" y="89" width="1" height="1" fill="#322B28" />
<rect x="89" y="89" width="1" height="1" fill="#221C1A" />
<rect x="90" y="89" width="1" height="1" fill="#322B28" />
<rect x="91" y="89" width="1" height="1" fill="#221C1A" />
<rect x="92" y="89" width="1" height="1" fill="#322B28" />
<rect x="93" y="89" width="1" height="1" fill="#221C1A" />
</svg>