<?xml version="1.0" encoding="UTF-8" ?>
<svg version="1.1" width="640" height="90" xmlns="http://www.w3.org/2000/svg" shape-rendering="crispEdges">
<rect x="35" y="73" width="1" height="1" fill="#FA6A0A" />
<rect x="42" y="73" width="1" height="1" fill="#FA6A0A" />
<rect x="36" y="74" width="1" height="1" fill="#F4D29C" />
<rect x="37" y="74" width="5" height="1" fill="#FA6A0A" />
<rect x="42" y="74" width="1" height="1" fill="#F9A31B" />
<rect x="43" y="74" width="1" height="1" fill="#FAD6B8" />
<rect x="36" y="75" width="2" height="3" fill="#FA6A0A" />
<rect x="38" y="75" width="1" height="1" fill="#060608" />
<rect x="39" y="75" width="2" height="1" fill="#FA6A0A" />
<rect x="41" y="75" width="1" height="1" fill="#060608" />
<rect x="42" y="75" width="1" height="3" fill="#FA6A0A" />
<rect x="43" y="75" width="1" height="1" fill="#F9A31B" />
<rect x="28" y="76" width="1" height="1" fill="#DF3E23" />
<rect x="29" y="76" width="3" height="1" fill="#FA6A0A" />
<rect x="32" y="76" width="1" height="1" fill="#F9A31B" />
<rect x="33" y="76" width="1" height="1" fill="#FA6A0A" />
<rect x="34" y="76" width="1" height="1" fill="#F9A31B" />
<rect x="35" y="76" width="1" height="3" fill="#DF3E23" />
<rect x="38" y="76" width="1" height="1" fill="#FA6A0A" />
<rect x="39" y="76" width="2" height="1" fill="#F5A097" />
<rect x="41" y="76" width="1" height="1" fill="#FA6A0A" />
<rect x="43" y="76" width="1" height="2" fill="#FA6A0A" />
<rect x="27" y="77" width="1" height="1" fill="#DF3E23" />
<rect x="28" y="77" width="2" height="1" fill="#FA6A0A" />
<rect x="30" y="77" width="4" height="1" fill="#F4D29C" />
<rect x="34" y="77" width="1" height="1" fill="#FA6A0A" />
<rect x="38" y="77" width="4" height="1" fill="#FAD6B8" />
<rect x="25" y="78" width="2" height="2" fill="#DF3E23" />
<rect x="27" y="78" width="2" height="1" fill="#FA6A0A" />
<rect x="29" y="78" width="1" height="5" fill="#F4D29C" />
<rect x="30" y="78" width="1" height="1" fill="#FAD6B8" />
<rect x="31" y="78" width="4" height="1" fill="#F4D29C" />
<rect x="36" y="78" width="1" height="1" fill="#FA6A0A" />
<rect x="37" y="78" width="3" height="3" fill="#F4D29C" />
<rect x="40" y="78" width="1" height="1" fill="#73172D" />
<rect x="41" y="78" width="1" height="1" fill="#FAD6B8" />
<rect x="42" y="78" width="2" height="1" fill="#F4D29C" />
<rect x="27" y="79" width="1" height="1" fill="#FA6A0A" />
<rect x="28" y="79" width="1" height="3" fill="#F4D29C" />
<rect x="30" y="79" width="1" height="4" fill="#F4D29C" />
<rect x="31" y="79" width="1" height="1" fill="#FAD6B8" />
<rect x="32" y="79" width="4" height="1" fill="#F4D29C" />
<rect x="36" y="79" width="1" height="1" fill="#DF3E23" />
<rect x="40" y="79" width="3" height="1" fill="#F4D29C" />
<rect x="26" y="80" width="1" height="1" fill="#DF3E23" />
<rect x="27" y="80" width="1" height="2" fill="#C7B08B" />
<rect x="31" y="80" width="1" height="3" fill="#F4D29C" />
<rect x="32" y="80" width="2" height="1" fill="#FAD6B8" />
<rect x="34" y="80" width="2" height="2" fill="#F4D29C" />
<rect x="36" y="80" width="1" height="1" fill="#C7B08B" />
<rect x="40" y="80" width="2" height="2" fill="#F4D29C" />
<rect x="32" y="81" width="1" height="2" fill="#F4D29C" />
<rect x="33" y="81" width="1" height="1" fill="#FAD6B8" />
<rect x="36" y="81" width="1" height="1" fill="#F4D29C" />
<rect x="37" y="81" width="1" height="2" fill="#C7B08B" />
<rect x="38" y="81" width="2" height="2" fill="#F4D29C" />
<rect x="28" y="82" width="1" height="1" fill="#C7B08B" />
<rect x="40" y="82" width="1" height="1" fill="#F4D29C" />
<rect x="29" y="83" width="2" height="1" fill="#E86A73" />
<rect x="31" y="83" width="2" height="1" fill="#F5A097" />
<rect x="37" y="83" width="2" height="1" fill="#E86A73" />
<rect x="39" y="83" width="2" height="1" fill="#F5A097" />
</svg>