<?xml version="1.0" encoding="UTF-8" ?>
<svg version="1.1" width="640" height="90" xmlns="http://www.w3.org/2000/svg" shape-rendering="crispEdges">
<rect x="12" y="73" width="1" height="1" fill="#FA6A0A" />
<rect x="19" y="73" width="1" height="1" fill="#FA6A0A" />
<rect x="12" y="74" width="1" height="1" fill="#F4D29C" />
<rect x="13" y="74" width="5" height="1" fill="#FA6A0A" />
<rect x="18" y="74" width="1" height="1" fill="#F9A31B" />
<rect x="19" y="74" width="1" height="1" fill="#FAD6B8" />
<rect x="12" y="75" width="2" height="3" fill="#FA6A0A" />
<rect x="14" y="75" width="1" height="1" fill="#060608" />
<rect x="15" y="75" width="2" height="1" fill="#FA6A0A" />
<rect x="17" y="75" width="1" height="1" fill="#060608" />
<rect x="18" y="75" width="1" height="3" fill="#FA6A0A" />
<rect x="19" y="75" width="1" height="1" fill="#F9A31B" />
<rect x="4" y="76" width="1" height="1" fill="#DF3E23" />
<rect x="5" y="76" width="3" height="1" fill="#FA6A0A" />
<rect x="8" y="76" width="1" height="1" fill="#F9A31B" />
<rect x="9" y="76" width="1" height="1" fill="#FA6A0A" />
<rect x="10" y="76" width="1" height="1" fill="#F9A31B" />
<rect x="11" y="76" width="1" height="3" fill="#DF3E23" />
<rect x="14" y="76" width="1" height="1" fill="#FA6A0A" />
<rect x="15" y="76" width="2" height="1" fill="#F5A097" />
<rect x="17" y="76" width="1" height="1" fill="#FA6A0A" />
<rect x="19" y="76" width="1" height="2" fill="#FA6A0A" />
<rect x="3" y="77" width="1" height="1" fill="#DF3E23" />
<rect x="4" y="77" width="2" height="1" fill="#FA6A0A" />
<rect x="6" y="77" width="4" height="1" fill="#F4D29C" />
<rect x="10" y="77" width="1" height="1" fill="#FA6A0A" />
<rect x="14" y="77" width="4" height="1" fill="#FAD6B8" />
<rect x="2" y="78" width="1" height="3" fill="#DF3E23" />
<rect x="3" y="78" width="2" height="1" fill="#FA6A0A" />
<rect x="5" y="78" width="1" height="5" fill="#F4D29C" />
<rect x="6" y="78" width="2" height="1" fill="#FAD6B8" />
<rect x="8" y="78" width="3" height="1" fill="#F4D29C" />
<rect x="12" y="78" width="1" height="1" fill="#FA6A0A" />
<rect x="13" y="78" width="2" height="3" fill="#F4D29C" />
<rect x="15" y="78" width="2" height="1" fill="#73172D" />
<rect x="17" y="78" width="1" height="1" fill="#FAD6B8" />
<rect x="18" y="78" width="2" height="1" fill="#F4D29C" />
<rect x="1" y="79" width="1" height="2" fill="#DF3E23" />
<rect x="3" y="79" width="1" height="1" fill="#FA6A0A" />
<rect x="4" y="79" width="1" height="3" fill="#F4D29C" />
<rect x="6" y="79" width="2" height="4" fill="#F4D29C" />
<rect x="8" y="79" width="1" height="1" fill="#FAD6B8" />
<rect x="9" y="79" width="3" height="1" fill="#F4D29C" />
<rect x="12" y="79" width="1" height="1" fill="#DF3E23" />
<rect x="15" y="79" width="4" height="1" fill="#F4D29C" />
<rect x="3" y="80" width="1" height="3" fill="#C7B08B" />
<rect x="8" y="80" width="1" height="3" fill="#F4D29C" />
<rect x="9" y="80" width="1" height="2" fill="#FAD6B8" />
<rect x="10" y="80" width="2" height="2" fill="#F4D29C" />
<rect x="12" y="80" width="1" height="1" fill="#C7B08B" />
<rect x="15" y="80" width="3" height="2" fill="#F4D29C" />
<rect x="12" y="81" width="1" height="1" fill="#F4D29C" />
<rect x="13" y="81" width="1" height="1" fill="#C7B08B" />
<rect x="14" y="81" width="1" height="1" fill="#F4D29C" />
<rect x="4" y="82" width="1" height="1" fill="#C7B08B" />
<rect x="14" y="82" width="2" height="1" fill="#C7B08B" />
<rect x="16" y="82" width="3" height="1" fill="#F4D29C" />
<rect x="4" y="83" width="2" height="1" fill="#E86A73" />
<rect x="6" y="83" width="2" height="1" fill="#F5A097" />
<rect x="15" y="83" width="1" height="1" fill="#E86A73" />
<rect x="16" y="83" width="3" height="1" fill="#F5A097" />
</svg>