<?xml version="1.0" encoding="UTF-8" ?>
<svg version="1.1" width="640" height="90" xmlns="http://www.w3.org/2000/svg" shape-rendering="crispEdges">
<rect x="300" y="0" width="29" height="90" fill="#081D3D" />
<rect x="340" y="0" width="10" height="90" fill="#081D3D" />
<rect x="329" y="2" width="4" height="88" fill="#081D3D" />
<rect x="333" y="3" width="1" height="87" fill="#081D3D" />
<rect x="350" y="3" width="1" height="87" fill="#081D3D" />
<rect x="334" y="4" width="2" height="86" fill="#081D3D" />
<rect x="336" y="5" width="4" height="85" fill="#081D3D" />
<rect x="567" y="7" width="2" height="83" fill="#081D3D" />
<rect x="115" y="8" width="1" height="82" fill="#081D3D" />
<rect x="249" y="8" width="1" height="82" fill="#081D3D" />
<rect x="566" y="10" width="1" height="80" fill="#081D3D" />
<rect x="252" y="11" width="2" height="79" fill="#081D3D" />
<rect x="351" y="11" width="1" height="79" fill="#081D3D" />
<rect x="569" y="11" width="2" height="79" fill="#081D3D" />
<rect x="251" y="12" width="1" height="78" fill="#081D3D" />
<rect x="254" y="12" width="1" height="78" fill="#081D3D" />
<rect x="250" y="13" width="1" height="77" fill="#081D3D" />
<rect x="267" y="13" width="11" height="77" fill="#081D3D" />
<rect x="255" y="14" width="2" height="76" fill="#081D3D" />
<rect x="278" y="14" width="1" height="76" fill="#081D3D" />
<rect x="114" y="15" width="1" height="75" fill="#081D3D" />
<rect x="116" y="15" width="1" height="75" fill="#081D3D" />
<rect x="352" y="16" width="1" height="74" fill="#081D3D" />
<rect x="391" y="16" width="1" height="74" fill="#081D3D" />
<rect x="565" y="17" width="1" height="73" fill="#081D3D" />
<rect x="571" y="17" width="1" height="73" fill="#081D3D" />
<rect x="265" y="18" width="1" height="72" fill="#081D3D" />
<rect x="392" y="18" width="1" height="72" fill="#081D3D" />
<rect x="564" y="18" width="1" height="72" fill="#081D3D" />
<rect x="572" y="18" width="1" height="72" fill="#081D3D" />
<rect x="264" y="19" width="1" height="71" fill="#081D3D" />
<rect x="563" y="19" width="1" height="71" fill="#081D3D" />
<rect x="113" y="20" width="1" height="70" fill="#081D3D" />
<rect x="117" y="20" width="1" height="70" fill="#081D3D" />
<rect x="257" y="20" width="3" height="70" fill="#081D3D" />
<rect x="263" y="20" width="1" height="70" fill="#081D3D" />
<rect x="266" y="20" width="1" height="70" fill="#081D3D" />
<rect x="390" y="20" width="1" height="70" fill="#081D3D" />
<rect x="393" y="20" width="1" height="70" fill="#081D3D" />
<rect x="573" y="20" width="1" height="70" fill="#081D3D" />
<rect x="118" y="21" width="1" height="69" fill="#081D3D" />
<rect x="353" y="21" width="1" height="69" fill="#081D3D" />
<rect x="574" y="21" width="1" height="69" fill="#081D3D" />
<rect x="394" y="22" width="1" height="68" fill="#081D3D" />
<rect x="395" y="23" width="1" height="67" fill="#081D3D" />
<rect x="459" y="23" width="18" height="46" fill="#081D3D" />
<rect x="260" y="24" width="3" height="66" fill="#081D3D" />
<rect x="458" y="24" width="1" height="32" fill="#081D3D" />
<rect x="477" y="24" width="6" height="66" fill="#081D3D" />
<rect x="279" y="25" width="10" height="65" fill="#081D3D" />
<rect x="354" y="25" width="1" height="65" fill="#081D3D" />
<rect x="396" y="25" width="1" height="65" fill="#081D3D" />
<rect x="456" y="25" width="2" height="12" fill="#081D3D" />
<rect x="483" y="25" width="1" height="65" fill="#081D3D" />
<rect x="484" y="26" width="1" height="64" fill="#081D3D" />
<rect x="562" y="26" width="1" height="64" fill="#081D3D" />
<rect x="112" y="27" width="1" height="63" fill="#081D3D" />
<rect x="119" y="27" width="1" height="63" fill="#081D3D" />
<rect x="389" y="27" width="1" height="63" fill="#081D3D" />
<rect x="397" y="27" width="1" height="63" fill="#081D3D" />
<rect x="485" y="27" width="1" height="63" fill="#081D3D" />
<rect x="398" y="28" width="1" height="62" fill="#081D3D" />
<rect x="486" y="28" width="1" height="62" fill="#081D3D" />
<rect x="247" y="29" width="2" height="61" fill="#081D3D" />
<rect x="487" y="29" width="5" height="20" fill="#081D3D" />
<rect x="589" y="29" width="4" height="61" fill="#081D3D" />
<rect x="110" y="30" width="2" height="60" fill="#081D3D" />
<rect x="120" y="30" width="1" height="60" fill="#081D3D" />
<rect x="242" y="30" width="5" height="60" fill="#081D3D" />
<rect x="355" y="30" width="1" height="60" fill="#081D3D" />
<rect x="399" y="30" width="2" height="60" fill="#081D3D" />
<rect x="492" y="30" width="1" height="12" fill="#081D3D" />
<rect x="575" y="30" width="5" height="60" fill="#081D3D" />
<rect x="583" y="30" width="1" height="60" fill="#081D3D" />
<rect x="587" y="30" width="2" height="60" fill="#081D3D" />
<rect x="109" y="31" width="1" height="59" fill="#081D3D" />
<rect x="121" y="31" width="1" height="59" fill="#081D3D" />
<rect x="401" y="31" width="1" height="59" fill="#081D3D" />
<rect x="493" y="31" width="1" height="4" fill="#081D3D" />
<rect x="551" y="31" width="11" height="59" fill="#081D3D" />
<rect x="580" y="31" width="1" height="59" fill="#081D3D" />
<rect x="585" y="31" width="2" height="59" fill="#081D3D" />
<rect x="108" y="32" width="1" height="58" fill="#081D3D" />
<rect x="122" y="32" width="1" height="58" fill="#081D3D" />
<rect x="402" y="32" width="1" height="58" fill="#081D3D" />
<rect x="582" y="32" width="1" height="58" fill="#081D3D" />
<rect x="584" y="32" width="1" height="58" fill="#081D3D" />
<rect x="599" y="32" width="1" height="58" fill="#081D3D" />
<rect x="602" y="32" width="1" height="58" fill="#081D3D" />
<rect x="605" y="32" width="1" height="58" fill="#081D3D" />
<rect x="608" y="32" width="1" height="58" fill="#081D3D" />
<rect x="611" y="32" width="1" height="58" fill="#081D3D" />
<rect x="614" y="32" width="1" height="58" fill="#081D3D" />
<rect x="617" y="32" width="1" height="58" fill="#081D3D" />
<rect x="620" y="32" width="1" height="58" fill="#081D3D" />
<rect x="623" y="32" width="1" height="58" fill="#081D3D" />
<rect x="626" y="32" width="1" height="58" fill="#081D3D" />
<rect x="629" y="32" width="1" height="58" fill="#081D3D" />
<rect x="632" y="32" width="1" height="58" fill="#081D3D" />
<rect x="635" y="32" width="1" height="58" fill="#081D3D" />
<rect x="638" y="32" width="1" height="58" fill="#081D3D" />
<rect x="107" y="33" width="1" height="57" fill="#081D3D" />
<rect x="123" y="33" width="1" height="57" fill="#081D3D" />
<rect x="550" y="33" width="1" height="57" fill="#081D3D" />
<rect x="106" y="34" width="1" height="56" fill="#081D3D" />
<rect x="124" y="34" width="1" height="56" fill="#081D3D" />
<rect x="403" y="34" width="21" height="56" fill="#081D3D" />
<rect x="542" y="34" width="1" height="56" fill="#081D3D" />
<rect x="593" y="34" width="6" height="56" fill="#081D3D" />
<rect x="600" y="34" width="2" height="56" fill="#081D3D" />
<rect x="603" y="34" width="2" height="56" fill="#081D3D" />
<rect x="606" y="34" width="2" height="56" fill="#081D3D" />
<rect x="609" y="34" width="2" height="56" fill="#081D3D" />
<rect x="612" y="34" width="2" height="56" fill="#081D3D" />
<rect x="615" y="34" width="2" height="56" fill="#081D3D" />
<rect x="618" y="34" width="2" height="56" fill="#081D3D" />
<rect x="621" y="34" width="2" height="56" fill="#081D3D" />
<rect x="624" y="34" width="2" height="56" fill="#081D3D" />
<rect x="627" y="34" width="2" height="56" fill="#081D3D" />
<rect x="630" y="34" width="2" height="56" fill="#081D3D" />
<rect x="633" y="34" width="2" height="56" fill="#081D3D" />
<rect x="636" y="34" width="2" height="56" fill="#081D3D" />
<rect x="639" y="34" width="1" height="56" fill="#081D3D" />
<rect x="33" y="35" width="5" height="55" fill="#081D3D" />
<rect x="45" y="35" width="8" height="55" fill="#081D3D" />
<rect x="105" y="35" width="1" height="55" fill="#081D3D" />
<rect x="125" y="35" width="1" height="55" fill="#081D3D" />
<rect x="388" y="35" width="1" height="55" fill="#081D3D" />
<rect x="31" y="36" width="2" height="54" fill="#081D3D" />
<rect x="38" y="36" width="1" height="54" fill="#081D3D" />
<rect x="104" y="36" width="1" height="54" fill="#081D3D" />
<rect x="126" y="36" width="1" height="54" fill="#081D3D" />
<rect x="240" y="36" width="2" height="54" fill="#081D3D" />
<rect x="541" y="36" width="1" height="54" fill="#081D3D" />
<rect x="543" y="36" width="7" height="54" fill="#081D3D" />
<rect x="581" y="36" width="1" height="54" fill="#081D3D" />
<rect x="39" y="37" width="4" height="53" fill="#081D3D" />
<rect x="356" y="37" width="1" height="53" fill="#081D3D" />
<rect x="457" y="37" width="1" height="7" fill="#081D3D" />
<rect x="53" y="38" width="9" height="52" fill="#081D3D" />
<rect x="103" y="38" width="1" height="52" fill="#081D3D" />
<rect x="127" y="38" width="1" height="52" fill="#081D3D" />
<rect x="536" y="39" width="5" height="51" fill="#081D3D" />
<rect x="102" y="40" width="1" height="50" fill="#081D3D" />
<rect x="535" y="40" width="1" height="50" fill="#081D3D" />
<rect x="73" y="41" width="1" height="49" fill="#081D3D" />
<rect x="128" y="41" width="1" height="49" fill="#081D3D" />
<rect x="534" y="41" width="1" height="49" fill="#081D3D" />
<rect x="387" y="42" width="1" height="48" fill="#081D3D" />
<rect x="26" y="43" width="5" height="47" fill="#081D3D" />
<rect x="238" y="43" width="2" height="47" fill="#081D3D" />
<rect x="357" y="43" width="1" height="47" fill="#081D3D" />
<rect x="72" y="44" width="1" height="46" fill="#081D3D" />
<rect x="74" y="44" width="1" height="46" fill="#081D3D" />
<rect x="101" y="44" width="1" height="46" fill="#081D3D" />
<rect x="129" y="44" width="1" height="46" fill="#081D3D" />
<rect x="237" y="45" width="1" height="45" fill="#081D3D" />
<rect x="43" y="46" width="2" height="44" fill="#081D3D" />
<rect x="71" y="47" width="1" height="43" fill="#081D3D" />
<rect x="75" y="47" width="1" height="43" fill="#081D3D" />
<rect x="212" y="49" width="18" height="41" fill="#081D3D" />
<rect x="358" y="49" width="1" height="41" fill="#081D3D" />
<rect x="386" y="49" width="1" height="41" fill="#081D3D" />
<rect x="487" y="49" width="4" height="8" fill="#081D3D" />
<rect x="0" y="50" width="10" height="40" fill="#081D3D" />
<rect x="230" y="50" width="1" height="40" fill="#081D3D" />
<rect x="14" y="51" width="7" height="39" fill="#081D3D" />
<rect x="69" y="51" width="2" height="39" fill="#081D3D" />
<rect x="76" y="51" width="2" height="39" fill="#081D3D" />
<rect x="98" y="51" width="3" height="39" fill="#081D3D" />
<rect x="130" y="51" width="3" height="39" fill="#081D3D" />
<rect x="21" y="52" width="3" height="38" fill="#081D3D" />
<rect x="10" y="53" width="4" height="37" fill="#081D3D" />
<rect x="97" y="53" width="1" height="1" fill="#081D3D" />
<rect x="133" y="53" width="1" height="37" fill="#081D3D" />
<rect x="532" y="53" width="2" height="2" fill="#081D3D" />
<rect x="68" y="55" width="1" height="35" fill="#081D3D" />
<rect x="78" y="55" width="1" height="35" fill="#081D3D" />
<rect x="210" y="55" width="1" height="35" fill="#081D3D" />
<rect x="533" y="55" width="1" height="35" fill="#081D3D" />
<rect x="359" y="56" width="1" height="34" fill="#081D3D" />
<rect x="385" y="56" width="1" height="34" fill="#081D3D" />
<rect x="487" y="57" width="3" height="33" fill="#081D3D" />
<rect x="79" y="58" width="19" height="32" fill="#081D3D" />
<rect x="134" y="58" width="3" height="32" fill="#081D3D" />
<rect x="532" y="58" width="1" height="2" fill="#081D3D" />
<rect x="24" y="59" width="2" height="31" fill="#081D3D" />
<rect x="360" y="60" width="1" height="30" fill="#081D3D" />
<rect x="363" y="60" width="1" height="30" fill="#081D3D" />
<rect x="367" y="60" width="1" height="30" fill="#081D3D" />
<rect x="373" y="60" width="8" height="30" fill="#081D3D" />
<rect x="62" y="61" width="3" height="29" fill="#081D3D" />
<rect x="362" y="61" width="1" height="29" fill="#081D3D" />
<rect x="364" y="61" width="3" height="29" fill="#081D3D" />
<rect x="368" y="61" width="5" height="29" fill="#081D3D" />
<rect x="361" y="62" width="1" height="28" fill="#081D3D" />
<rect x="65" y="63" width="1" height="27" fill="#081D3D" />
<rect x="137" y="63" width="1" height="27" fill="#081D3D" />
<rect x="211" y="63" width="1" height="27" fill="#081D3D" />
<rect x="231" y="63" width="6" height="27" fill="#081D3D" />
<rect x="295" y="63" width="5" height="27" fill="#081D3D" />
<rect x="384" y="63" width="1" height="27" fill="#081D3D" />
<rect x="532" y="63" width="1" height="2" fill="#081D3D" />
<rect x="66" y="64" width="2" height="26" fill="#081D3D" />
<rect x="294" y="64" width="1" height="26" fill="#081D3D" />
<rect x="191" y="65" width="15" height="25" fill="#081D3D" />
<rect x="293" y="65" width="1" height="25" fill="#081D3D" />
<rect x="138" y="66" width="3" height="24" fill="#081D3D" />
<rect x="144" y="66" width="2" height="1" fill="#081D3D" />
<rect x="190" y="66" width="1" height="24" fill="#081D3D" />
<rect x="207" y="66" width="1" height="24" fill="#081D3D" />
<rect x="381" y="66" width="3" height="24" fill="#081D3D" />
<rect x="144" y="67" width="1" height="23" fill="#081D3D" />
<rect x="186" y="67" width="4" height="23" fill="#081D3D" />
<rect x="206" y="67" width="1" height="23" fill="#081D3D" />
<rect x="208" y="67" width="2" height="23" fill="#081D3D" />
<rect x="490" y="67" width="13" height="23" fill="#081D3D" />
<rect x="185" y="68" width="1" height="22" fill="#081D3D" />
<rect x="532" y="68" width="1" height="2" fill="#081D3D" />
<rect x="141" y="69" width="2" height="21" fill="#081D3D" />
<rect x="146" y="69" width="1" height="21" fill="#081D3D" />
<rect x="174" y="69" width="11" height="21" fill="#081D3D" />
<rect x="292" y="69" width="1" height="21" fill="#081D3D" />
<rect x="424" y="69" width="27" height="21" fill="#081D3D" />
<rect x="460" y="69" width="17" height="21" fill="#081D3D" />
<rect x="143" y="70" width="1" height="20" fill="#081D3D" />
<rect x="149" y="70" width="1" height="20" fill="#081D3D" />
<rect x="145" y="71" width="1" height="19" fill="#081D3D" />
<rect x="451" y="71" width="3" height="19" fill="#081D3D" />
<rect x="147" y="72" width="2" height="18" fill="#081D3D" />
<rect x="526" y="72" width="1" height="18" fill="#081D3D" />
<rect x="150" y="73" width="24" height="17" fill="#081D3D" />
<rect x="512" y="73" width="5" height="17" fill="#081D3D" />
<rect x="532" y="73" width="1" height="2" fill="#081D3D" />
<rect x="503" y="74" width="9" height="16" fill="#081D3D" />
<rect x="517" y="74" width="2" height="16" fill="#081D3D" />
<rect x="525" y="76" width="1" height="14" fill="#081D3D" />
<rect x="291" y="77" width="1" height="13" fill="#081D3D" />
<rect x="519" y="77" width="1" height="13" fill="#081D3D" />
<rect x="290" y="78" width="1" height="12" fill="#081D3D" />
<rect x="454" y="78" width="6" height="12" fill="#081D3D" />
<rect x="520" y="78" width="1" height="12" fill="#081D3D" />
<rect x="527" y="78" width="1" height="12" fill="#081D3D" />
<rect x="532" y="78" width="1" height="12" fill="#081D3D" />
<rect x="289" y="79" width="1" height="11" fill="#081D3D" />
<rect x="521" y="79" width="4" height="11" fill="#081D3D" />
<rect x="530" y="79" width="2" height="11" fill="#081D3D" />
<rect x="528" y="80" width="2" height="10" fill="#081D3D" />
</svg>