<?xml version="1.0" encoding="UTF-8" ?>
<svg version="1.1" width="640" height="90" xmlns="http://www.w3.org/2000/svg" shape-rendering="crispEdges">
<rect x="43" y="47" width="9" height="1" fill="#F9A31B" />
<rect x="44" y="48" width="1" height="1" fill="#DAE0EA" />
<rect x="45" y="48" width="1" height="2" fill="#FFFFFF" />
<rect x="46" y="48" width="5" height="1" fill="#DAE0EA" />
<rect x="44" y="49" width="1" height="1" fill="#E4D2AA" />
<rect x="46" y="49" width="5" height="1" fill="#E4D2AA" />
<rect x="45" y="50" width="1" height="1" fill="#E4D2AA" />
<rect x="46" y="50" width="1" height="2" fill="#FFFFFF" />
<rect x="47" y="50" width="3" height="1" fill="#E4D2AA" />
<rect x="47" y="51" width="2" height="1" fill="#E4D2AA" />
<rect x="47" y="52" width="1" height="3" fill="#E4D2AA" />
<rect x="46" y="53" width="1" height="2" fill="#FFFFFF" />
<rect x="48" y="53" width="1" height="3" fill="#DAE0EA" />
<rect x="45" y="54" width="1" height="1" fill="#DAE0EA" />
<rect x="49" y="54" width="1" height="2" fill="#DAE0EA" />
<rect x="44" y="55" width="1" height="1" fill="#DAE0EA" />
<rect x="45" y="55" width="1" height="2" fill="#FFFFFF" />
<rect x="46" y="55" width="2" height="1" fill="#DAE0EA" />
<rect x="50" y="55" width="1" height="1" fill="#DAE0EA" />
<rect x="44" y="56" width="1" height="1" fill="#E4D2AA" />
<rect x="46" y="56" width="5" height="1" fill="#E4D2AA" />
<rect x="43" y="57" width="9" height="1" fill="#F9A31B" />
</svg>