<?xml version="1.0" encoding="UTF-8" ?>
<svg version="1.1" width="640" height="90" xmlns="http://www.w3.org/2000/svg" shape-rendering="crispEdges">
<rect x="102" y="32" width="93" height="1" fill="#403353" />
<rect x="102" y="33" width="19" height="1" fill="#403353" />
<rect x="121" y="33" width="1" height="6" fill="#E3E6FF" />
<rect x="122" y="33" width="1" height="8" fill="#403353" />
<rect x="123" y="33" width="1" height="6" fill="#E3E6FF" />
<rect x="124" y="33" width="28" height="1" fill="#403353" />
<rect x="152" y="33" width="1" height="6" fill="#E3E6FF" />
<rect x="153" y="33" width="39" height="1" fill="#403353" />
<rect x="192" y="33" width="1" height="6" fill="#E3E6FF" />
<rect x="193" y="33" width="2" height="8" fill="#403353" />
<rect x="102" y="34" width="3" height="1" fill="#403353" />
<rect x="105" y="34" width="2" height="1" fill="#E3E6FF" />
<rect x="107" y="34" width="1" height="7" fill="#403353" />
<rect x="108" y="34" width="6" height="1" fill="#E3E6FF" />
<rect x="114" y="34" width="3" height="1" fill="#403353" />
<rect x="117" y="34" width="2" height="1" fill="#E3E6FF" />
<rect x="119" y="34" width="2" height="1" fill="#403353" />
<rect x="124" y="34" width="6" height="1" fill="#403353" />
<rect x="130" y="34" width="3" height="1" fill="#E3E6FF" />
<rect x="133" y="34" width="2" height="3" fill="#403353" />
<rect x="135" y="34" width="2" height="1" fill="#E3E6FF" />
<rect x="137" y="34" width="3" height="1" fill="#403353" />
<rect x="140" y="34" width="2" height="1" fill="#E3E6FF" />
<rect x="142" y="34" width="3" height="1" fill="#403353" />
<rect x="145" y="34" width="2" height="1" fill="#E3E6FF" />
<rect x="147" y="34" width="5" height="1" fill="#403353" />
<rect x="153" y="34" width="5" height="16" fill="#403353" />
<rect x="158" y="34" width="6" height="1" fill="#E3E6FF" />
<rect x="164" y="34" width="3" height="1" fill="#403353" />
<rect x="167" y="34" width="2" height="1" fill="#E3E6FF" />
<rect x="169" y="34" width="2" height="1" fill="#403353" />
<rect x="171" y="34" width="6" height="1" fill="#E3E6FF" />
<rect x="177" y="34" width="2" height="1" fill="#403353" />
<rect x="179" y="34" width="6" height="1" fill="#E3E6FF" />
<rect x="185" y="34" width="3" height="1" fill="#403353" />
<rect x="188" y="34" width="2" height="1" fill="#E3E6FF" />
<rect x="190" y="34" width="2" height="1" fill="#403353" />
<rect x="102" y="35" width="2" height="6" fill="#403353" />
<rect x="104" y="35" width="1" height="1" fill="#E3E6FF" />
<rect x="105" y="35" width="2" height="1" fill="#403353" />
<rect x="108" y="35" width="1" height="4" fill="#E3E6FF" />
<rect x="109" y="35" width="2" height="6" fill="#403353" />
<rect x="111" y="35" width="1" height="4" fill="#E3E6FF" />
<rect x="112" y="35" width="2" height="6" fill="#403353" />
<rect x="114" y="35" width="1" height="4" fill="#E3E6FF" />
<rect x="115" y="35" width="4" height="1" fill="#403353" />
<rect x="119" y="35" width="1" height="4" fill="#E3E6FF" />
<rect x="120" y="35" width="1" height="6" fill="#403353" />
<rect x="124" y="35" width="5" height="6" fill="#403353" />
<rect x="129" y="35" width="1" height="3" fill="#E3E6FF" />
<rect x="130" y="35" width="3" height="3" fill="#403353" />
<rect x="135" y="35" width="2" height="1" fill="#403353" />
<rect x="137" y="35" width="1" height="4" fill="#E3E6FF" />
<rect x="138" y="35" width="1" height="15" fill="#403353" />
<rect x="139" y="35" width="1" height="2" fill="#E3E6FF" />
<rect x="140" y="35" width="2" height="2" fill="#403353" />
<rect x="142" y="35" width="1" height="4" fill="#E3E6FF" />
<rect x="143" y="35" width="1" height="15" fill="#403353" />
<rect x="144" y="35" width="1" height="3" fill="#E3E6FF" />
<rect x="145" y="35" width="2" height="1" fill="#403353" />
<rect x="147" y="35" width="1" height="2" fill="#E3E6FF" />
<rect x="148" y="35" width="2" height="1" fill="#403353" />
<rect x="150" y="35" width="2" height="1" fill="#E3E6FF" />
<rect x="158" y="35" width="1" height="4" fill="#E3E6FF" />
<rect x="159" y="35" width="2" height="8" fill="#403353" />
<rect x="161" y="35" width="1" height="4" fill="#E3E6FF" />
<rect x="162" y="35" width="2" height="8" fill="#403353" />
<rect x="164" y="35" width="1" height="4" fill="#E3E6FF" />
<rect x="165" y="35" width="4" height="1" fill="#403353" />
<rect x="169" y="35" width="1" height="4" fill="#E3E6FF" />
<rect x="170" y="35" width="1" height="9" fill="#403353" />
<rect x="171" y="35" width="1" height="4" fill="#E3E6FF" />
<rect x="172" y="35" width="2" height="6" fill="#403353" />
<rect x="174" y="35" width="1" height="4" fill="#E3E6FF" />
<rect x="175" y="35" width="2" height="6" fill="#403353" />
<rect x="177" y="35" width="1" height="4" fill="#E3E6FF" />
<rect x="178" y="35" width="1" height="6" fill="#403353" />
<rect x="179" y="35" width="1" height="4" fill="#E3E6FF" />
<rect x="180" y="35" width="2" height="6" fill="#403353" />
<rect x="182" y="35" width="1" height="4" fill="#E3E6FF" />
<rect x="183" y="35" width="2" height="6" fill="#403353" />
<rect x="185" y="35" width="1" height="4" fill="#E3E6FF" />
<rect x="186" y="35" width="4" height="1" fill="#403353" />
<rect x="190" y="35" width="1" height="4" fill="#E3E6FF" />
<rect x="191" y="35" width="1" height="6" fill="#403353" />
<rect x="104" y="36" width="1" height="2" fill="#403353" />
<rect x="105" y="36" width="1" height="1" fill="#E3E6FF" />
<rect x="106" y="36" width="1" height="1" fill="#403353" />
<rect x="115" y="36" width="2" height="1" fill="#403353" />
<rect x="117" y="36" width="2" height="1" fill="#E3E6FF" />
<rect x="135" y="36" width="2" height="1" fill="#E3E6FF" />
<rect x="145" y="36" width="2" height="1" fill="#E3E6FF" />
<rect x="148" y="36" width="1" height="14" fill="#403353" />
<rect x="149" y="36" width="1" height="2" fill="#E3E6FF" />
<rect x="150" y="36" width="2" height="2" fill="#403353" />
<rect x="165" y="36" width="2" height="1" fill="#403353" />
<rect x="167" y="36" width="2" height="1" fill="#E3E6FF" />
<rect x="186" y="36" width="2" height="1" fill="#403353" />
<rect x="188" y="36" width="2" height="1" fill="#E3E6FF" />
<rect x="105" y="37" width="1" height="1" fill="#403353" />
<rect x="106" y="37" width="1" height="1" fill="#E3E6FF" />
<rect x="115" y="37" width="1" height="4" fill="#403353" />
<rect x="116" y="37" width="1" height="1" fill="#E3E6FF" />
<rect x="117" y="37" width="2" height="1" fill="#403353" />
<rect x="133" y="37" width="1" height="6" fill="#403353" />
<rect x="134" y="37" width="1" height="1" fill="#E3E6FF" />
<rect x="135" y="37" width="2" height="1" fill="#403353" />
<rect x="139" y="37" width="1" height="13" fill="#403353" />
<rect x="140" y="37" width="2" height="1" fill="#E3E6FF" />
<rect x="145" y="37" width="3" height="1" fill="#403353" />
<rect x="165" y="37" width="1" height="6" fill="#403353" />
<rect x="166" y="37" width="1" height="1" fill="#E3E6FF" />
<rect x="167" y="37" width="2" height="1" fill="#403353" />
<rect x="186" y="37" width="1" height="4" fill="#403353" />
<rect x="187" y="37" width="1" height="1" fill="#E3E6FF" />
<rect x="188" y="37" width="2" height="1" fill="#403353" />
<rect x="104" y="38" width="2" height="1" fill="#E3E6FF" />
<rect x="106" y="38" width="1" height="3" fill="#403353" />
<rect x="116" y="38" width="1" height="3" fill="#403353" />
<rect x="117" y="38" width="2" height="1" fill="#E3E6FF" />
<rect x="129" y="38" width="1" height="5" fill="#403353" />
<rect x="130" y="38" width="3" height="1" fill="#E3E6FF" />
<rect x="134" y="38" width="1" height="5" fill="#403353" />
<rect x="135" y="38" width="2" height="1" fill="#E3E6FF" />
<rect x="140" y="38" width="2" height="1" fill="#403353" />
<rect x="144" y="38" width="1" height="4" fill="#403353" />
<rect x="145" y="38" width="2" height="1" fill="#E3E6FF" />
<rect x="147" y="38" width="1" height="7" fill="#403353" />
<rect x="149" y="38" width="1" height="6" fill="#403353" />
<rect x="150" y="38" width="2" height="1" fill="#E3E6FF" />
<rect x="166" y="38" width="1" height="12" fill="#403353" />
<rect x="167" y="38" width="2" height="1" fill="#E3E6FF" />
<rect x="187" y="38" width="1" height="3" fill="#403353" />
<rect x="188" y="38" width="2" height="1" fill="#E3E6FF" />
<rect x="104" y="39" width="2" height="2" fill="#403353" />
<rect x="108" y="39" width="1" height="2" fill="#403353" />
<rect x="111" y="39" width="1" height="2" fill="#403353" />
<rect x="114" y="39" width="1" height="2" fill="#403353" />
<rect x="117" y="39" width="3" height="2" fill="#403353" />
<rect x="121" y="39" width="1" height="2" fill="#403353" />
<rect x="123" y="39" width="1" height="2" fill="#403353" />
<rect x="130" y="39" width="3" height="4" fill="#403353" />
<rect x="135" y="39" width="3" height="5" fill="#403353" />
<rect x="140" y="39" width="2" height="1" fill="#E3E6FF" />
<rect x="142" y="39" width="1" height="4" fill="#403353" />
<rect x="145" y="39" width="2" height="5" fill="#403353" />
<rect x="150" y="39" width="3" height="4" fill="#403353" />
<rect x="158" y="39" width="1" height="4" fill="#403353" />
<rect x="161" y="39" width="1" height="11" fill="#403353" />
<rect x="164" y="39" width="1" height="8" fill="#403353" />
<rect x="167" y="39" width="3" height="4" fill="#403353" />
<rect x="171" y="39" width="1" height="11" fill="#403353" />
<rect x="174" y="39" width="1" height="2" fill="#403353" />
<rect x="177" y="39" width="1" height="2" fill="#403353" />
<rect x="179" y="39" width="1" height="2" fill="#403353" />
<rect x="182" y="39" width="1" height="2" fill="#403353" />
<rect x="185" y="39" width="1" height="2" fill="#403353" />
<rect x="188" y="39" width="3" height="2" fill="#403353" />
<rect x="192" y="39" width="1" height="2" fill="#403353" />
<rect x="140" y="40" width="2" height="2" fill="#403353" />
<rect x="125" y="41" width="4" height="2" fill="#403353" />
<rect x="172" y="41" width="1" height="9" fill="#403353" />
<rect x="140" y="42" width="1" height="8" fill="#403353" />
<rect x="141" y="42" width="1" height="5" fill="#E3E6FF" />
<rect x="144" y="42" width="1" height="6" fill="#E3E6FF" />
<rect x="125" y="43" width="3" height="1" fill="#403353" />
<rect x="128" y="43" width="2" height="1" fill="#E3E6FF" />
<rect x="130" y="43" width="2" height="1" fill="#403353" />
<rect x="132" y="43" width="3" height="1" fill="#E3E6FF" />
<rect x="142" y="43" width="1" height="1" fill="#E3E6FF" />
<rect x="150" y="43" width="2" height="1" fill="#E3E6FF" />
<rect x="152" y="43" width="1" height="1" fill="#403353" />
<rect x="158" y="43" width="1" height="5" fill="#E3E6FF" />
<rect x="159" y="43" width="1" height="1" fill="#403353" />
<rect x="160" y="43" width="1" height="1" fill="#E3E6FF" />
<rect x="162" y="43" width="1" height="4" fill="#E3E6FF" />
<rect x="163" y="43" width="1" height="4" fill="#403353" />
<rect x="165" y="43" width="1" height="5" fill="#E3E6FF" />
<rect x="167" y="43" width="3" height="1" fill="#E3E6FF" />
<rect x="125" y="44" width="2" height="6" fill="#403353" />
<rect x="127" y="44" width="1" height="3" fill="#E3E6FF" />
<rect x="128" y="44" width="2" height="3" fill="#403353" />
<rect x="130" y="44" width="1" height="3" fill="#E3E6FF" />
<rect x="131" y="44" width="1" height="6" fill="#403353" />
<rect x="132" y="44" width="1" height="4" fill="#E3E6FF" />
<rect x="133" y="44" width="2" height="6" fill="#403353" />
<rect x="135" y="44" width="1" height="4" fill="#E3E6FF" />
<rect x="136" y="44" width="2" height="6" fill="#403353" />
<rect x="142" y="44" width="1" height="3" fill="#403353" />
<rect x="145" y="44" width="2" height="1" fill="#E3E6FF" />
<rect x="149" y="44" width="1" height="3" fill="#E3E6FF" />
<rect x="150" y="44" width="2" height="1" fill="#403353" />
<rect x="152" y="44" width="1" height="2" fill="#E3E6FF" />
<rect x="159" y="44" width="1" height="1" fill="#E3E6FF" />
<rect x="160" y="44" width="1" height="6" fill="#403353" />
<rect x="167" y="44" width="1" height="4" fill="#E3E6FF" />
<rect x="168" y="44" width="2" height="6" fill="#403353" />
<rect x="170" y="44" width="1" height="4" fill="#E3E6FF" />
<rect x="145" y="45" width="2" height="5" fill="#403353" />
<rect x="147" y="45" width="1" height="3" fill="#E3E6FF" />
<rect x="150" y="45" width="2" height="1" fill="#E3E6FF" />
<rect x="159" y="45" width="1" height="5" fill="#403353" />
<rect x="150" y="46" width="3" height="1" fill="#403353" />
<rect x="127" y="47" width="1" height="3" fill="#403353" />
<rect x="128" y="47" width="2" height="1" fill="#E3E6FF" />
<rect x="130" y="47" width="1" height="3" fill="#403353" />
<rect x="141" y="47" width="1" height="3" fill="#403353" />
<rect x="142" y="47" width="1" height="1" fill="#E3E6FF" />
<rect x="149" y="47" width="1" height="3" fill="#403353" />
<rect x="150" y="47" width="2" height="1" fill="#E3E6FF" />
<rect x="152" y="47" width="1" height="3" fill="#403353" />
<rect x="162" y="47" width="1" height="3" fill="#403353" />
<rect x="163" y="47" width="2" height="1" fill="#E3E6FF" />
<rect x="128" y="48" width="2" height="2" fill="#403353" />
<rect x="132" y="48" width="1" height="2" fill="#403353" />
<rect x="135" y="48" width="1" height="2" fill="#403353" />
<rect x="142" y="48" width="1" height="2" fill="#403353" />
<rect x="144" y="48" width="1" height="2" fill="#403353" />
<rect x="147" y="48" width="1" height="2" fill="#403353" />
<rect x="150" y="48" width="2" height="2" fill="#403353" />
<rect x="158" y="48" width="1" height="2" fill="#403353" />
<rect x="163" y="48" width="3" height="2" fill="#403353" />
<rect x="167" y="48" width="1" height="2" fill="#403353" />
<rect x="170" y="48" width="1" height="2" fill="#403353" />
</svg>