<?xml version="1.0" encoding="UTF-8" ?>
<svg version="1.1" width="320" height="90" xmlns="http://www.w3.org/2000/svg" shape-rendering="crispEdges">
<rect x="295" y="6" width="7" height="23" fill="#FCF7BE" />
<rect x="293" y="7" width="2" height="21" fill="#FCF7BE" />
<rect x="302" y="7" width="2" height="21" fill="#FCF7BE" />
<rect x="292" y="8" width="1" height="19" fill="#FCF7BE" />
<rect x="304" y="8" width="1" height="19" fill="#FCF7BE" />
<rect x="291" y="9" width="1" height="17" fill="#FCF7BE" />
<rect x="305" y="9" width="1" height="17" fill="#FCF7BE" />
<rect x="290" y="10" width="1" height="15" fill="#FCF7BE" />
<rect x="306" y="10" width="1" height="15" fill="#FCF7BE" />
<rect x="289" y="11" width="1" height="13" fill="#FCF7BE" />
<rect x="307" y="11" width="1" height="13" fill="#FCF7BE" />
<rect x="288" y="12" width="1" height="11" fill="#FCF7BE" />
<rect x="308" y="12" width="1" height="11" fill="#FCF7BE" />
<rect x="287" y="14" width="1" height="7" fill="#FCF7BE" />
<rect x="309" y="14" width="1" height="7" fill="#FCF7BE" />
</svg>