<?xml version="1.0" encoding="UTF-8" ?>
<svg version="1.1" width="320" height="90" xmlns="http://www.w3.org/2000/svg" shape-rendering="crispEdges">
<rect x="150" y="0" width="1" height="3" fill="#FCF7BE" />
<rect x="149" y="1" width="1" height="1" fill="#FCF7BE" />
<rect x="151" y="1" width="1" height="1" fill="#FCF7BE" />
<rect x="104" y="3" width="1" height="3" fill="#FCF7BE" />
<rect x="257" y="3" width="1" height="3" fill="#FCF7BE" />
<rect x="66" y="4" width="1" height="3" fill="#FCF7BE" />
<rect x="103" y="4" width="1" height="1" fill="#FCF7BE" />
<rect x="105" y="4" width="1" height="1" fill="#FCF7BE" />
<rect x="256" y="4" width="1" height="1" fill="#FCF7BE" />
<rect x="258" y="4" width="1" height="1" fill="#FCF7BE" />
<rect x="65" y="5" width="1" height="1" fill="#FCF7BE" />
<rect x="67" y="5" width="1" height="1" fill="#FCF7BE" />
<rect x="18" y="6" width="1" height="3" fill="#FCF7BE" />
<rect x="17" y="7" width="1" height="1" fill="#FCF7BE" />
<rect x="19" y="7" width="1" height="1" fill="#FCF7BE" />
<rect x="98" y="9" width="1" height="3" fill="#FCF7BE" />
<rect x="97" y="10" width="1" height="1" fill="#FCF7BE" />
<rect x="99" y="10" width="1" height="1" fill="#FCF7BE" />
<rect x="29" y="11" width="1" height="3" fill="#FCF7BE" />
<rect x="28" y="12" width="1" height="1" fill="#FCF7BE" />
<rect x="30" y="12" width="1" height="1" fill="#FCF7BE" />
<rect x="217" y="14" width="1" height="3" fill="#FCF7BE" />
<rect x="216" y="15" width="1" height="1" fill="#FCF7BE" />
<rect x="218" y="15" width="1" height="1" fill="#FCF7BE" />
<rect x="141" y="17" width="1" height="3" fill="#FCF7BE" />
<rect x="79" y="18" width="1" height="3" fill="#FCF7BE" />
<rect x="140" y="18" width="1" height="1" fill="#FCF7BE" />
<rect x="142" y="18" width="1" height="1" fill="#FCF7BE" />
<rect x="78" y="19" width="1" height="1" fill="#FCF7BE" />
<rect x="80" y="19" width="1" height="1" fill="#FCF7BE" />
<rect x="110" y="26" width="1" height="3" fill="#F6D896" />
<rect x="109" y="27" width="1" height="1" fill="#F6D896" />
<rect x="111" y="27" width="1" height="1" fill="#F6D896" />
<rect x="206" y="28" width="1" height="3" fill="#F6D896" />
<rect x="205" y="29" width="1" height="1" fill="#F6D896" />
<rect x="207" y="29" width="1" height="1" fill="#F6D896" />
</svg>